<svg xmlns="http://www.w3.org/2000/svg" xmlns:xlink="http://www.w3.org/1999/xlink" version="1.1" x="0px" y="0px" viewBox="0 0 100.006 100.006" enable-background="new 0 0 100.006 100.006" xml:space="preserve"><g><path d="M45.219,24.804c0.448-0.748,0.573-2.05-0.18-2.658c-0.104-0.084-5.187,0.687-5.211,0.979   c-0.085,1.017,0.057,2.172,0.882,2.872c0.699,0.594,1.656,0.651,2.505,0.389C44.046,26.128,44.772,25.547,45.219,24.804z    M44.095,24.022c-0.223,0.463-0.669,0.822-1.142,1.007c-1.207,0.47-1.677-0.332-1.74-1.318c1.004-0.117,2.045-0.423,2.941-0.868   C44.205,23.245,44.294,23.611,44.095,24.022z"></path><path d="M52.835,27.757c-0.145-0.865-4.77-1.309-4.897-1.043c-0.621,1.285,0.315,3.049,1.701,3.311   C51.119,30.306,52.979,28.622,52.835,27.757z M49.919,28.911c-0.602-0.031-0.784-0.58-0.894-1.139   c0.495,0.092,1.011,0.124,1.498,0.155c0.309,0.02,0.675,0.052,1.028,0.03C51.158,28.503,50.648,28.949,49.919,28.911z"></path><path d="M67.714,47.099c-0.096-0.093,0.666-7.443-4.434-8.417c-0.901-0.224-1.644-0.135-2.261,0.178   c0.227-1.798,0.527-3.564,0.055-5.394c-0.69-2.672-3.695-3.748-6.208-3.135c-0.003-1.645-0.581-3.181-1.675-4.667   c-1.677-2.279-4.23-2.492-5.405-0.53c0.07-3.066-1.378-5.259-4.86-5.5c-1.143-0.079-2.067,0.185-2.814,0.703   c-1.124-2.957-5.632-2.771-8.076-1.426c-5.755,3.164-2.954,7.954-2.529,13.164c0.493,6.044-0.33,12.154-0.363,18.202   c-0.058,10.757,1.679,20.517-1.672,31.028c-0.195,0.612,0.762,1.027,1.044,0.44c5.23-10.859,1.685-23.678,2.114-35.217   c0.179-4.815,0.496-9.635,0.242-14.454c-0.088-1.67-0.442-3.18-0.92-4.777c-0.567-1.897,0.27-4.815,0.309-4.729   c0.163,2.75,1.666,6.479,4.854,6.575c1.122,0.033,1.827-0.448,2.242-1.176c-0.239,5.693,1.2,12.63,1.751,15.104   c0.105,0.474,0.864,0.369,0.844-0.114c-0.158-3.782-4.672-24.186,3.947-22.164c4.804,1.128,2.322,8.05,1.712,10.941   c-0.818,3.874-1.127,7.786-0.646,11.723c0.085,0.695,1.173,0.726,1.113,0c-0.469-5.744,0.858-10.996,1.546-16.582   c0.05-0.019,1.11-2.72,4.024-1.13c1.706,1.468,2.305,3.399,1.798,5.795c-0.277,1.571-1.176,3.171-1.748,4.617   c-1.235,3.12-1.782,6.138-1.261,9.461c0.106,0.679,1.221,0.513,1.189-0.161c-0.185-4.036,0.835-7.123,2.103-10.624   c0.263,0.837,0.937,1.528,1.918,1.805c1.734,0.488,3.251-1.589,3.013-2.932s-3.113-0.843-4.107-1.252   c0.107-0.374,0.188-0.742,0.24-1.104c1.396,0.008,2.705-0.205,4.003,0.598c1.005,0.622,1.317,1.934,1.415,3.024   c0.153,1.714-0.365,3.36-0.441,5.046c-2.21,3.31-1.462,11.273-1.183,13.605c0.054,0.45,0.74,0.635,0.854,0.115   c0.865-3.965-0.72-7.979,0.858-11.644c0.229,0.794,1.434,1.209,2.17,1.147c2.411,0.079,2.802-1.946,2.606-2.273   c0.1,0.098,1.013,2.521,1.029,3.623c0.027,1.877-0.807,3.691-0.709,5.531c0.023,0.446,0.615,0.639,0.855,0.231   c0.396-0.673,0.706-1.454,0.919-2.288c6.884,9.469,2.65,20.27,1.023,30.754c-0.1,0.642,0.784,0.916,0.988,0.273   C72.131,69.818,75.64,54.877,67.714,47.099z M34.969,27.934c-1.972-0.127-2.873-2.424-3.277-4.301   c1.557,0.74,3.581,0.846,4.929-0.15C36.907,25.177,37.246,28.079,34.969,27.934z M37.75,24.607   c-0.117-0.758-0.332-1.468-0.592-1.994c-0.001-0.002-0.003-0.003-0.004-0.005c-0.067-0.145-0.211-0.242-0.396-0.166   c-1.978,0.813-5.952-0.852-6.119-0.777c0.631-0.797,1.547-1.463,2.791-1.956c1.641-0.651,5.145-0.959,6.258,0.961   C38.721,21.554,38.108,22.94,37.75,24.607z M54.904,33.789c0.403,0.146,0.863,0.195,1.275,0.264   c0.605,0.102,1.166,0.06,1.746-0.034c-0.364,0.934-0.721,1.861-1.969,1.497C55.104,35.267,54.795,34.542,54.904,33.789z    M62.625,42.088c-0.33,0.072-0.676,0.019-0.963-0.151c-0.185-0.108-0.286-0.297-0.407-0.472c0.436,0.006,2.025,0.095,2.373,0.161   C63.335,41.831,63.022,42.001,62.625,42.088z M61.111,40.653c0.125-0.175,0.244-0.351,0.388-0.524   c0.812-0.978,2.44-0.131,3.335,0.622C64.812,40.739,61.672,40.511,61.111,40.653z"></path><path d="M62.997,61.359c-1.202,4.081-3.798,7.983-4.543,12.154c-0.081,0.452,0.501,0.738,0.759,0.319   c2.205-3.569,3.538-8.217,4.499-12.276C63.822,61.091,63.132,60.899,62.997,61.359z"></path></g></svg>